<svg xmlns="http://www.w3.org/2000/svg" width="800" height="800" viewBox="-56.5 0 369 369" preserveAspectRatio="xMidYMid" xmlns:v="https://vecta.io/nano"><path d="M214.899 157.358c15.266 2.349 25.835 9.394 31.706 18.789S256 201.982 256 223.119c0 42.275-12.917 77.505-38.752 104.514s-58.716 41.101-98.642 41.101c-15.266 0-30.532-2.349-45.798-8.22s-27.009-14.092-37.578-23.486c-11.743-10.569-21.138-23.486-27.009-35.229C3.523 288.881 0 275.963 0 263.046c0-14.092 3.523-25.835 9.394-34.055s16.44-12.917 29.358-16.44c-2.349-5.872-4.697-10.569-5.872-15.266-1.174-3.523-2.349-7.046-2.349-9.394 0-7.046 3.523-15.266 11.743-23.486s15.266-11.743 22.312-11.743c3.523 0 5.872 0 9.394 1.174s7.046 2.349 11.743 5.872c-10.569-35.229-21.138-64.587-27.009-84.55s-8.22-32.881-8.22-41.101c0-10.569 2.349-18.789 8.22-24.661C63.413 3.523 71.633 0 81.028 0c15.266 0 35.229 35.229 59.89 106.862 4.697 11.743 7.046 21.138 9.394 28.183 2.349-4.697 4.697-12.917 8.22-22.312C183.193 42.275 204.33 7.046 220.771 7.046c8.22 0 15.266 2.349 21.138 8.22 4.697 5.872 8.22 14.092 8.22 23.486 0 7.046-2.349 21.138-8.22 41.101l-27.009 77.505h0zM34.055 260.697c2.349 2.349 5.872 7.046 9.394 12.917 10.569 15.266 21.138 23.486 30.532 23.486 3.523 0 5.872-1.174 8.22-3.523s3.523-4.697 3.523-5.872c0-2.349-1.174-7.046-4.697-12.917s-8.22-12.917-14.092-19.963c-7.046-8.22-12.917-15.266-16.44-18.789-4.697-3.523-8.22-5.872-10.569-5.872-5.872 0-11.743 3.523-16.44 9.394s-7.046 14.092-7.046 22.312c0 7.046 1.174 14.092 4.697 23.486 3.523 8.22 8.22 17.615 15.266 25.835 10.569 11.743 22.312 22.312 37.578 29.358s30.532 10.569 49.321 10.569c32.881 0 59.89-11.743 82.202-36.404s32.881-55.193 32.881-92.771c0-11.743-1.174-19.963-2.349-27.009s-4.697-11.743-8.22-14.092c-7.046-5.872-19.963-10.569-39.927-15.266s-41.101-7.046-62.239-7.046c-5.872 0-10.569 1.174-12.917 3.523s-3.523 5.872-3.523 10.569c0 11.743 5.872 19.963 18.789 24.661s34.055 8.22 62.239 8.22h10.569c2.349 0 4.697 1.174 5.872 2.349 1.174 2.349 2.349 4.697 2.349 8.22-2.349 2.349-8.22 5.872-17.615 9.394s-15.266 7.046-19.963 10.569c-10.569 7.046-18.789 16.44-24.661 27.009s-9.394 19.963-9.394 29.358c0 5.872 1.174 11.743 3.523 19.963s3.523 12.917 3.523 14.092v2.349 2.349c-7.046 0-12.917-4.697-17.615-12.917s-5.872-18.789-5.872-32.881v-2.349c-1.174 1.174-2.349 2.349-3.523 2.349s-2.349 1.174-4.697 1.174h-4.697c-1.174 0-2.349-1.174-4.697-1.174 0 2.349 1.174 3.523 1.174 5.872v4.697c0 5.872-2.349 11.743-7.046 16.44s-10.569 7.046-17.615 7.046c-10.569 0-21.138-4.697-32.881-15.266-10.569-10.569-16.44-19.963-16.44-30.532 0-2.349 0-3.523 1.174-4.697 0-5.872 1.174-7.046 2.349-8.22h0zm76.33 5.872c2.349 0 5.872-1.174 8.22-3.523s3.523-5.872 3.523-8.22c0-3.523-2.349-10.569-7.046-22.312s-10.569-23.486-17.615-34.055c-4.697-8.22-10.569-15.266-15.266-18.789-4.697-4.697-9.394-5.872-14.092-5.872-3.523 0-7.046 2.349-11.743 7.046s-5.872 8.22-5.872 12.917c0 3.523 2.349 10.569 5.872 18.789 4.697 8.22 9.394 16.44 16.44 25.835S86.899 256 93.945 261.872c7.046 2.349 11.743 4.697 16.44 4.697h0zm24.661-122.128l-28.183-78.679c-7.046-19.963-11.743-34.055-16.44-39.927-3.523-5.872-7.046-9.394-11.743-9.394-3.523 0-5.872 1.174-8.22 3.523-3.523 3.523-4.697 7.046-4.697 11.743 0 8.22 3.523 21.138 9.394 39.927s15.266 44.624 27.009 75.156c1.174-2.349 2.349-3.523 4.697-3.523 2.349-1.174 4.697-1.174 7.046-1.174h5.872c3.523 1.174 8.22 1.174 15.266 2.349h0zm28.183 76.33c-7.046 0-14.092-1.174-21.138-2.349s-12.917-2.349-18.789-4.697c2.349 5.872 4.697 10.569 7.046 16.44s3.523 10.569 4.697 16.44c3.523-4.697 8.22-9.394 12.917-14.092 5.872-4.697 10.569-8.22 15.266-11.743h0zm34.055-68.11c11.743-30.532 19.963-56.367 27.009-76.33 5.872-19.963 9.394-31.706 9.394-36.404s-1.174-8.22-3.523-11.743c-2.349-2.349-4.697-3.523-8.22-3.523-4.697 0-9.394 3.523-14.092 11.743s-10.569 19.963-16.44 37.578l-25.835 72.807 31.706 5.872h0z"/></svg>